<?xml version="1.0" encoding="UTF-8"?>
<svg id="Layer_2" data-name="Layer 2" xmlns="http://www.w3.org/2000/svg" viewBox="0 0 60 60">
  <defs>
    <style>
      .cls-1 {
        fill: #32373B;
        fill-rule: evenodd;
        stroke-width: 0px;
      }
    </style>
  </defs>
  <g id="Layer_1-2" data-name="Layer 1">
    <path class="cls-1" d="m46.84,44.14v-11.71c0-6.27-3.35-9.19-7.82-9.19-3.6,0-5.22,1.98-6.12,3.37v-2.89h-6.79c.09,1.92,0,20.43,0,20.43h6.79v-11.41c0-.61.04-1.22.22-1.65.49-1.22,1.61-2.48,3.48-2.48,2.46,0,3.44,1.87,3.44,4.62v10.93h6.79Zm-27.88-23.22c2.37,0,3.84-1.57,3.84-3.53-.04-2-1.48-3.53-3.8-3.53s-3.84,1.52-3.84,3.53,1.47,3.53,3.75,3.53h.04Zm11.04,39.08C13.43,60,0,46.57,0,30S13.43,0,30,0s30,13.43,30,30-13.43,30-30,30Zm-7.65-15.86v-20.43h-6.79v20.43h6.79Z"/>
  </g>
</svg>